<svg width="382" height="63" viewBox="0 0 382 63" fill="none" xmlns="http://www.w3.org/2000/svg">
<path d="M126.819 30.0848H381.605" stroke="black" stroke-width="3"/>
<path d="M86.4785 1.77789L87.8406 1.14957C87.6608 0.759833 87.3227 0.465781 86.9117 0.341817C86.5008 0.217854 86.0565 0.275856 85.6912 0.501147L86.4785 1.77789ZM128.193 30.0849L128.423 31.5672C129.154 31.4538 129.693 30.8245 129.693 30.0849C129.693 29.3453 129.154 28.716 128.423 28.6026L128.193 30.0849ZM86.3385 60.4418L85.5468 61.7158C85.9161 61.9453 86.3668 62.0033 86.7822 61.8746C87.1976 61.746 87.5367 61.4434 87.7116 61.0454L86.3385 60.4418ZM49.7907 30.4096L48.7689 29.3114C48.1641 29.874 48.1281 30.8198 48.6884 31.4269L49.7907 30.4096ZM85.1164 2.40621C94.3504 22.4234 116.667 29.8147 127.963 31.5672L128.423 28.6026C117.441 26.8989 96.4301 19.7697 87.8406 1.14957L85.1164 2.40621ZM127.963 28.6026C122.177 29.5003 113.73 32.1374 105.593 37.1082C97.4478 42.0839 89.5321 49.4493 84.9653 59.8381L87.7116 61.0454C91.9677 51.3635 99.3801 44.419 107.157 39.6683C114.942 34.9127 123.011 32.4068 128.423 31.5672L127.963 28.6026ZM87.1301 59.1677C73.5063 50.702 61.7374 41.1428 50.893 29.3923L48.6884 31.4269C59.7274 43.3883 71.7087 53.117 85.5468 61.7158L87.1301 59.1677ZM50.8124 31.5078C63.7638 19.4582 74.6463 10.8369 87.2659 3.05464L85.6912 0.501147C72.8611 8.41326 61.8222 17.1671 48.7689 29.3114L50.8124 31.5078Z" fill="black"/>
</svg>
